REM DIRINDEX 1\2\4,1\2\5,1\3\6,1\3\7,1\3\8
REM DIRNAME cjc094,folder01,folder02,folder03,folder04,folder05,folder06,folder07
TITLE ""
FILE "LV2_033_WORDS.mp3" MP3
  TRACK 01 AUDIO
    TITLE "0:"
    INDEX 01 00:00:00
  TRACK 02 AUDIO
    TITLE "6:cjc094_1225"
    INDEX 01 00:00:01
  TRACK 03 AUDIO
    TITLE "0:"
    INDEX 01 00:01:73
  TRACK 04 AUDIO
    TITLE "7:cjc094_1226"
    INDEX 01 00:02:43
  TRACK 05 AUDIO
    TITLE "0:"
    INDEX 01 00:03:51
  TRACK 06 AUDIO
    TITLE "8:cjc094_1227"
    INDEX 01 00:03:66
  TRACK 07 AUDIO
    TITLE "0:"
    INDEX 01 00:05:73
  TRACK 08 AUDIO
    TITLE "7:cjc094_1228"
    INDEX 01 00:06:43
  TRACK 09 AUDIO
    TITLE "0:"
    INDEX 01 00:07:49
  TRACK 10 AUDIO
    TITLE "8:cjc094_1229"
    INDEX 01 00:07:64
  TRACK 11 AUDIO
    TITLE "0:"
    INDEX 01 00:09:40
  TRACK 12 AUDIO
    TITLE "7:cjc094_1230"
    INDEX 01 00:10:08
  TRACK 13 AUDIO
    TITLE "0:"
    INDEX 01 00:11:19
  TRACK 14 AUDIO
    TITLE "8:cjc094_1231"
    INDEX 01 00:11:33
  TRACK 15 AUDIO
    TITLE "0:"
    INDEX 01 00:13:57
  TRACK 16 AUDIO
    TITLE "7:cjc094_1232"
    INDEX 01 00:14:31
  TRACK 17 AUDIO
    TITLE "0:"
    INDEX 01 00:15:38
  TRACK 18 AUDIO
    TITLE "8:cjc094_1233"
    INDEX 01 00:15:54
  TRACK 19 AUDIO
    TITLE "0:"
    INDEX 01 00:16:49
  TRACK 20 AUDIO
    TITLE "7:cjc094_1234"
    INDEX 01 00:17:21
  TRACK 21 AUDIO
    TITLE "0:"
    INDEX 01 00:18:50
  TRACK 22 AUDIO
    TITLE "8:cjc094_1235"
    INDEX 01 00:18:64
  TRACK 23 AUDIO
    TITLE "0:"
    INDEX 01 00:20:51
  TRACK 24 AUDIO
    TITLE "7:cjc094_1236"
    INDEX 01 00:21:23
  TRACK 25 AUDIO
    TITLE "0:"
    INDEX 01 00:22:30
  TRACK 26 AUDIO
    TITLE "8:cjc094_1237"
    INDEX 01 00:22:42
  TRACK 27 AUDIO
    TITLE "0:"
    INDEX 01 00:25:01
  TRACK 28 AUDIO
    TITLE "7:cjc094_1238"
    INDEX 01 00:25:39
  TRACK 29 AUDIO
    TITLE "0:"
    INDEX 01 00:26:42
  TRACK 30 AUDIO
    TITLE "8:cjc094_1239"
    INDEX 01 00:26:52
  TRACK 31 AUDIO
    TITLE "0:"
    INDEX 01 00:28:68
  TRACK 32 AUDIO
    TITLE "7:cjc094_1240"
    INDEX 01 00:29:25
  TRACK 33 AUDIO
    TITLE "0:"
    INDEX 01 00:30:30
  TRACK 34 AUDIO
    TITLE "8:cjc094_1241"
    INDEX 01 00:30:42
  TRACK 35 AUDIO
    TITLE "0:"
    INDEX 01 00:31:43
  TRACK 36 AUDIO
    TITLE "7:cjc094_1242"
    INDEX 01 00:32:09
  TRACK 37 AUDIO
    TITLE "0:"
    INDEX 01 00:33:17
  TRACK 38 AUDIO
    TITLE "8:cjc094_1243"
    INDEX 01 00:33:34
  TRACK 39 AUDIO
    TITLE "0:"
    INDEX 01 00:35:43
  TRACK 40 AUDIO
    TITLE "7:cjc094_1244"
    INDEX 01 00:36:19
  TRACK 41 AUDIO
    TITLE "0:"
    INDEX 01 00:37:32
  TRACK 42 AUDIO
    TITLE "8:cjc094_1245"
    INDEX 01 00:37:46
  TRACK 43 AUDIO
    TITLE "0:"
    INDEX 01 00:39:74
  TRACK 44 AUDIO
    TITLE "7:cjc094_1246"
    INDEX 01 00:40:46
  TRACK 45 AUDIO
    TITLE "0:"
    INDEX 01 00:41:55
  TRACK 46 AUDIO
    TITLE "8:cjc094_1247"
    INDEX 01 00:41:65
  TRACK 47 AUDIO
    TITLE "0:"
    INDEX 01 00:44:07
  TRACK 48 AUDIO
    TITLE "7:cjc094_1248"
    INDEX 01 00:44:52
  TRACK 49 AUDIO
    TITLE "0:"
    INDEX 01 00:46:00
  TRACK 50 AUDIO
    TITLE "8:cjc094_1249"
    INDEX 01 00:46:11
  TRACK 51 AUDIO
    TITLE "0:"
    INDEX 01 00:47:72
  TRACK 52 AUDIO
    TITLE "7:cjc094_1250"
    INDEX 01 00:48:48
  TRACK 53 AUDIO
    TITLE "0:"
    INDEX 01 00:50:07
  TRACK 54 AUDIO
    TITLE "8:cjc094_1251"
    INDEX 01 00:50:21
  TRACK 55 AUDIO
    TITLE "0:"
    INDEX 01 00:52:47
  TRACK 56 AUDIO
    TITLE "7:cjc094_1252"
    INDEX 01 00:53:13
  TRACK 57 AUDIO
    TITLE "0:"
    INDEX 01 00:54:19
  TRACK 58 AUDIO
    TITLE "8:cjc094_1253"
    INDEX 01 00:54:30
  TRACK 59 AUDIO
    TITLE "0:"
    INDEX 01 00:55:24
  TRACK 60 AUDIO
    TITLE "7:cjc094_1254"
    INDEX 01 00:55:69
  TRACK 61 AUDIO
    TITLE "0:"
    INDEX 01 00:57:01
  TRACK 62 AUDIO
    TITLE "8:cjc094_1255"
    INDEX 01 00:57:17
  TRACK 63 AUDIO
    TITLE "0:"
    INDEX 01 00:58:36
  TRACK 64 AUDIO
    TITLE "7:cjc094_1256"
    INDEX 01 00:59:04
  TRACK 65 AUDIO
    TITLE "0:"
    INDEX 01 01:00:53
  TRACK 66 AUDIO
    TITLE "8:cjc094_1257"
    INDEX 01 01:00:64
  TRACK 67 AUDIO
    TITLE "0:"
    INDEX 01 01:02:73
  TRACK 68 AUDIO
    TITLE "7:cjc094_1258"
    INDEX 01 01:03:41
  TRACK 69 AUDIO
    TITLE "0:"
    INDEX 01 01:04:47
  TRACK 70 AUDIO
    TITLE "8:cjc094_1259"
    INDEX 01 01:04:56
  TRACK 71 AUDIO
    TITLE "0:"
    INDEX 01 01:05:58
  TRACK 72 AUDIO
    TITLE "7:cjc094_1260"
    INDEX 01 01:06:32
  TRACK 73 AUDIO
    TITLE "0:"
    INDEX 01 01:07:37
  TRACK 74 AUDIO
    TITLE "8:cjc094_1261"
    INDEX 01 01:07:51
  TRACK 75 AUDIO
    TITLE "0:"
    INDEX 01 01:08:74
